<svg width="250" height="250" fill="none" xmlns="http://www.w3.org/2000/svg"><g clip-path="url(#a)"><path d="M99.89 172.64c-23.79 1.49-41.41 1.28-73.91 3.84C6.62 178 4.74 188.21 14.72 200.79l14.87 15.78c5.42 5.55 13.06 8.41 20.19 11.45 11.67 4.97 50.91 13.18 80.3 19.31 8.24 1.72 12.71 1.91 20.57 1.91l-50.76-76.61v.01Z" fill="#000" stroke="#000" stroke-width="1.5" stroke-linecap="round" stroke-linejoin="round"></path><path d="M240.69 46.81c-.73-2.58-2.11-4.7-3.8-6.77-9.47-11.64-19.23-23.21-28.71-34.85-2.75-3.38-6.82-4.52-11.86-4.43-22.6 0-78.87 1.77-93.01 2.02-2.71 0-3.27 1.31-3.3 3.39l-.05 38.86s.44 40.31.69 82.7c.13 22.89.19 65.23.19 65.23.11 5.76.61 10.24 3.83 14.4l30.29 35.86c3.27 3.22 6.1 6.04 10.47 6.04" fill="#00E013"></path><path d="M240.69 46.81c-.73-2.58-2.11-4.7-3.8-6.77-9.47-11.64-19.23-23.21-28.71-34.85-2.75-3.38-6.82-4.52-11.86-4.43-22.6 0-78.87 1.77-93.01 2.02-2.71 0-3.27 1.31-3.3 3.39l-.05 38.86s.44 40.31.69 82.7c.13 22.89.19 65.23.19 65.23.11 5.76.61 10.24 3.83 14.4l30.29 35.86c3.27 3.22 6.1 6.04 10.47 6.04" stroke="#000" stroke-width="1.5" stroke-linecap="round" stroke-linejoin="round"></path><path d="M146.8 46.07c10.36-.27 21.83-.37 32.54-.58 13.89-.27 42.49-.44 56.11-.47 4.21 0 5.76 1.04 5.76 5.18-.24 26.24-.37 56.33-.61 82.56-.22 23.42.42 78.97-.61 98.06-.2 3.79-.13 7.77-.22 11.57-.04 4.41-2.59 5.47-7.15 5.33-15.02.2-69.43 1.22-87.2 1.53-2.89-.16-4.19-1.88-3.86-5.2-.06-10.92.1-25.79.04-36.71l-.56-37.68.33-118.53c-.1-2.99 1.47-5.13 5.42-5.06h.01Z" fill="#00E013" stroke="#000" stroke-width="1.5" stroke-linecap="round" stroke-linejoin="round"></path><path d="M189.59 212.66c7.22 2.36 11.81-6.12 7.58-10.52-4.42-4.59-11.95-1.73-11.44 3.96 0 3.51 1.43 5.82 3.86 6.56Z" fill="#00E013" stroke="#000" stroke-width="1.5" stroke-linecap="round" stroke-linejoin="round"></path><path d="M127.33 234.19c-1.34-1.59-1.55-3.46-1.48-7.22.05-2.77.26-7.49.25-9.1-.25-29.1.74-49.66 1.41-74.27.83-30.61 1.26-45.01 1.02-71.17-.1-11.34-.11-24.98-.21-36.32.05-2.35.72-3.97 3.91-4.16 30.36-1.83 69.01-1.83 91.78-1.83 2.48 0 5.47 0 6.9 2.61" stroke="#000" stroke-width="1.5" stroke-linecap="round" stroke-linejoin="round"></path><path d="M112.83 217.03c-.97-.81-.97-2.04-.97-4.09.02-24.86 1.56-48.54 1.89-73.44.5-37.6 1.03-76.48 1.53-114.08-.01-1.97-.03-3.89-.04-5.75.05-2.35.72-3.97 3.91-4.16 30.36-1.83 69.01-1.83 91.78-1.83 2.48 0 4.36.12 6.38 2.61" stroke="#000" stroke-width="1.5" stroke-linecap="round" stroke-linejoin="round"></path><path d="M187.96 86.91c-2.92 9.86 12.65 12.49 13.37 2.47.27-7.6-11.41-8.5-13.37-2.47Z" fill="#00E013" stroke="#000" stroke-width="1.5" stroke-linecap="round" stroke-linejoin="round"></path><path d="M230.91 134.289c-.21-12.21 0-56.31 0-56.31 0-1.6-.98-2.72-2.26-3.16-5.87-2.01-9.18-4.46-9.26-12.59.02-2.23-1.83-3.38-3.59-3.28-14.9.87-29.05 1.56-44.21 1.82-1.84.23-2.69 1.16-3.02 2.79-1.17 8.06-4.6 10.63-11.04 12.27-1.78.51-2.73 1.29-2.78 2.9-.05 18.23-.1 38.39-.15 56.62l.41 32.82c-.54 14.65-.49 33.15.15 47.8-.12 1.59.79 2.08 2.11 2.14 5.4 2.01 10.27 5.32 10.78 12.3 0 2.52 1.19 3.47 3.03 3.57l44.71-.53c1.19 0 2.08-.7 2.05-2.39-.1-7.54 3.6-10.95 9.88-12.45 1.25-.13 2.06-.49 2.11-1.8-.02-13.29.33-38.19 0-55.33l1.07-27.18.01-.01Z" stroke="#000" stroke-width="1.5" stroke-linecap="round" stroke-linejoin="round"></path><path d="M220.89 175.26c5.91-5.04 9.31-12.51 10.46-20.21 1-6.75.91-13.81-.44-20.76-2.37-12.16-14.88-17.72-26.2-19.57-22.12-2.51-38.12 2.36-48.05 16.56-5.58 9.68-4.33 23.69-2.89 32.49 3.82 22.08 49.1 26.04 67.13 11.49h-.01Z" fill="#fff" stroke="#000" stroke-width="1.5" stroke-linecap="round" stroke-linejoin="round"></path><path d="m190.66 157.96 6.21.19c1.03.02 1.45-.28 1.41-1.26l-2.51-17.13M207.87 161.56c-.69 3.5-4.14 6.28-7.76 6.93-2.44.41-7.23.87-11.09.36-4.56-.79-6.98-3.65-8.45-6.56M208.18 139.24c.447 0 .81-.51.81-1.14 0-.63-.363-1.14-.81-1.14-.447 0-.81.51-.81 1.14 0 .63.363 1.14.81 1.14ZM180.19 139.5c.447 0 .81-.511.81-1.14 0-.63-.363-1.14-.81-1.14-.447 0-.81.51-.81 1.14 0 .629.363 1.14.81 1.14Z" stroke="#000" stroke-width="1.5" stroke-linecap="round" stroke-linejoin="round"></path></g><defs><clipPath id="a"><path fill="#fff" d="M0 0h250v250H0z"></path></clipPath></defs></svg>
