<svg width="250" height="250" fill="none" xmlns="http://www.w3.org/2000/svg"><path d="M218.6 9.84c3.48 1.76 5.11 7.88 4.99 12.23-.23 1.41-8.94.94-17.76.59-8.82-.35 3.6-15.05 12.77-12.82ZM156.95 75.5c-7.27.94-5.99 9.77-8.36 12.39-33.42 36.96-58.02 26.34-108.45 87-21.85 26.29 26.95 63.91 44.55 44.55 68.62-75.49 42.7-84.13 76.82-121.52 3.48-3.65 9.4-.35 11.02-7.41 1.41-6.14-6.61-15.52-15.59-15.01h.01Z" fill="#00E013" stroke="#000" stroke-width="1.5" stroke-linecap="round" stroke-linejoin="round"></path><path d="m142.17 94.52 13.93 9.7c1.62-2.02 3.41-4.11 5.41-6.3 3.48-3.65 9.4-.35 11.02-7.41 1.41-6.14-6.61-15.52-15.59-15.01-7.27.94-5.99 9.77-8.36 12.39-2.18 2.41-4.31 4.61-6.42 6.64l.01-.01Z" fill="#fff" stroke="#000" stroke-width="1.5" stroke-linecap="round" stroke-linejoin="round"></path><path d="M142.07 128.27c3.41-8.55 7.73-16.93 17.01-27.63-2.42 2.72-14.23-8.78-11.8-11.34-10.01 10.77-19.26 17.37-28.7 23.03l23.48 15.94h.01Z" fill="#00E013" stroke="#000" stroke-width="1.5" stroke-linecap="round" stroke-linejoin="round"></path><path d="M146.56 118.5c-2.41 4.9-19.62-8.47-16.45-13.78-10.08 7.43-19.92 12.29-30.7 18.55 19.63-3.94 36.95 20.29 39.93 12.28 2.12-5.82 4.14-11.27 7.22-17.05Z" fill="#fff" stroke="#000" stroke-width="1.5" stroke-linecap="round" stroke-linejoin="round"></path><path d="M129.82 107.08c-.18-.88-.11-1.69.29-2.37-10.08 7.43-19.92 12.29-30.7 18.55 1.43-.29 2.85-.42 4.25-.43H104.24c19.25.28 27.28-9.5 25.58-15.75Z" fill="#fff" stroke="#000" stroke-width="1.5" stroke-linecap="round" stroke-linejoin="round"></path><path d="M109.61 117.5c7.53 2.64 16.04-3.51 14.97-8.93-4.95 3.26-9.89 6.08-14.97 8.93ZM108.68 168.97c-25.65-10.16-30.76-27.51-29.56-32.36-8.73 6.6-18.28 15.09-29.06 26.89-2.31 4.9 2.58 29.2 29.89 38.97.89.32 1.88.06 2.51-.66l26.79-30.45c.69-.78.39-2.01-.57-2.39Z" fill="#fff" stroke="#000" stroke-width="1.5" stroke-linecap="round" stroke-linejoin="round"></path><path d="M98.39 176.46c.53-.56.62-1.39.27-2.08-.66-1.3-.28-2.73.14-3.68.29-.65.02-1.43-.59-1.78-12.7-7.18-21.52-17.03-22.95-29.31-6.7 5.36-13.89 11.88-21.74 20.17-.23 6.26-.38 21.3 21.91 35.1.51.32 1.16.27 1.62-.12 1.86-1.57 3.72-1.71 4.72-1.63.52.04 1.02-.16 1.38-.54l15.24-16.13Z" stroke="#000" stroke-width="1.5" stroke-linecap="round" stroke-linejoin="round"></path><path d="M19.7 241.85c-5.25 8.6 82.4 11.05 87.27 0 4.87-11.05-79.38-12.94-87.27 0Z" fill="#000" stroke="#000" stroke-width="1.5" stroke-linecap="round" stroke-linejoin="round"></path><path d="M166.4 67.67c-.1-.4-.65-.41-.78-.02-1.03 3.15-3.5 9.46-8.23 14.92-2.09 2.53 4.47 10.29 8.82 6.53 4.34-3.75 10.05-12.76 11-14.52-3.68 3.22-9.62-2.1-10.8-6.91h-.01Z" fill="#00E013" stroke="#000" stroke-width="1.5" stroke-linecap="round" stroke-linejoin="round"></path><path d="M175.67 68.7c-3.52-1.81-8.47.32-6.55 3.86 2.37 2.61 6.55 3.9 8.08 2.03 1.2-1.47 2-4.06-1.54-5.89h.01Z" fill="#00E013" stroke="#000" stroke-width="1.5" stroke-linecap="round" stroke-linejoin="round"></path><path d="M164.82 85.66c-.77.81-1.14 2-.91 3.1.09.45.29.88.56 1.25.6-.14 1.19-.43 1.74-.91 1.19-1.03 2.47-2.44 3.74-4-.64-.39-1.38-.62-2.13-.64-1.11-.03-2.23.4-3 1.2Z" stroke="#000" stroke-width="1.5" stroke-linecap="round" stroke-linejoin="round"></path><path d="M166.74 75.81c-.24-.31-.59-.68-.94-.52-.56.24-.72.73-1.01 1.27-1.93 3.59-3.78 7.4-6.67 10.19 1.79 2.56 5.37 4.71 8.09 2.36 2.42-2.09 5.26-5.82 7.47-9.01-2.72-.52-5.25-2.06-6.94-4.29Z" stroke="#000" stroke-width="1.5" stroke-linecap="round" stroke-linejoin="round"></path><path d="M229.12 64.71c-5.27-2.32-10.95-3.52-16.66-4.14-2.13-.23-4.26-.4-6.4-.32-6.77.25-13.21 2.97-19.23 6.11-.53.28-1.12.63-1.27 1.22-.1.42.04.85.18 1.25a87.824 87.824 0 0 1 3.85 15.5c.06.36.14.77.44.97.34.22.78.09 1.16-.06 3.08-1.17 6.15-2.44 9.38-3.06 1.94-.37 3.92-.51 5.89-.65 3.03-.21 6.08-.42 9.11-.21 2.61.18 5.2.67 7.7 1.46.97.31 1.98.66 2.99.49 1.01-.18 1.58-1.11 1.76-2.13.89-5.1 2.21-12.5 2.44-13.78.23-1.28.04-2.06-1.33-2.66l-.01.01Z" fill="#00E013" stroke="#000" stroke-width="1.5" stroke-linecap="round" stroke-linejoin="round"></path><path d="M223.66 76.66c-1.1.11-2.11.73-2.68 1.67-.29.47-.83.7-1.36.6-7.47-1.38-15.21-.94-22.46 1.34-.44.14-.91.03-1.26-.27-.57-.48-1.3-.79-2.03-.84-.57-.04-1.05-.43-1.14-1-.35-2.19-.67-4.42-1.02-6.6-.09-.56.23-1.09.76-1.31.45-.18.85-.48 1.16-.86.35-.43.56-1 .61-1.57.05-.51.42-.93.9-1.09 8.8-2.96 18.48-3.19 27.41-.65.51.14.89.57.95 1.1.06.53.28 1.03.58 1.42.25.32.59.57.96.72.54.22.85.8.73 1.38-.35 1.62-.73 3.43-1.08 5.02-.11.5-.52.88-1.02.93l-.01.01Z" stroke="#000" stroke-width="1.5" stroke-linecap="round" stroke-linejoin="round"></path><path d="M208.74 64.34c-5.61 0-6.06 13.78 0 13.87 6.06.09 5.84-13.87 0-13.87ZM196.75 73.15c-.11.51-.03 1.09.32 1.47.36.39.97.5 1.47.31s.88-.62 1.07-1.12c.88-2.31-2.36-3.06-2.86-.66ZM218.99 70.4c-.24.05-.45.18-.64.33-1.32 1.08-.59 4.03 1.25 3.1 1.41-.71 1.34-3.88-.61-3.44v.01Z" stroke="#000" stroke-width="1.5" stroke-linecap="round" stroke-linejoin="round"></path><path d="M208.74 47c.12.47-5.35-.35-10.51-.24-5.16.12-10.03 1.18-10.03.24 0-29.63 5.22-35.98 8.5-38.92 1.48-1.41 17.15-1.53 21.91 1.76-7.66 3.88-11.49 13.76-9.86 37.16h-.01Z" fill="#00E013" stroke="#000" stroke-width="1.5" stroke-linecap="round" stroke-linejoin="round"></path><path d="M194.87 15.65c-3.36 8.11 11.8 8.58 12.95 1.4.97-6.03-10.45-7.44-12.95-1.4ZM197.86 29.62c-.63.39-1.29.83-1.6 1.51-.44 1 .15 2.28 1.15 2.7 1 .42 2.23.01 2.9-.85.45-.57.67-1.35.5-2.06-.32-1.34-1.83-2.01-2.95-1.31v.01Z" stroke="#000" stroke-width="1.5" stroke-linecap="round" stroke-linejoin="round"></path><path d="M201.07 7.22c-2.95 1.8-4.97 5.17-6.21 8.43-3.19 8.36-3.79 17.45-4.02 26.43-.03 1.05.84 1.9 1.88 1.83 2.65-.19 5.45-.25 8.09-.09.78.05 1.55-.54 1.66-1.33.19-1.3.79-2.34 1.6-2.85.57-.36.96-.95.98-1.63.29-7.94 1.23-26.8 8.94-29.52.19-.07.17-.34-.02-.38-4.02-.89-9.23-1.1-12.9-.88v-.01Z" stroke="#000" stroke-width="1.5" stroke-linecap="round" stroke-linejoin="round"></path><path d="M151.07 23.6C149.72 23.2 164.99-.32 167.1.79c18.42 9.64 26.33 33.87 26.33 51.86 0 3.77-25.69 10.6-25.41 8.58 2.09-15.4-5.45-34.22-16.94-37.63h-.01Z" fill="#00E013" stroke="#000" stroke-width="1.5" stroke-linecap="round" stroke-linejoin="round"></path><path d="M189.53 46.41c-1.37.96-2.13 2.63-2.08 4.33.02.78-.46 1.49-1.18 1.79-2.56 1.06-5.7 2.06-8.42 2.83-.86.24-1.74-.21-2.13-1.03-.35-.75-1.01-1.35-1.8-1.58a3.55 3.55 0 0 0-.47-.09c-.73-.08-1.32-.65-1.41-1.38-1.55-11.66-6.58-22.12-11.66-26.44-.37-.32-.57-.78-.58-1.27-.02-1.02-.47-2.07-1.18-2.81-.55-.57-.64-1.46-.25-2.16 1.89-3.45 4.11-6.71 6.63-9.72.48-.58 1.26-.82 1.97-.57 1.07.38 2.32.31 3.31-.23.59-.32 1.31-.24 1.81.21 5.98 5.41 15.66 17.8 18.09 36.56.08.6-.15 1.21-.64 1.56h-.01Z" stroke="#000" stroke-width="1.5" stroke-linecap="round" stroke-linejoin="round"></path><path d="M184.26 25.01c-3.88-6.83-20.98 2.98-15.9 11.16 4.56 7.33 20.83-2.49 15.9-11.16ZM178 44.84c-.31.75-.17 1.68.36 2.3.53.62 1.42.89 2.2.68.3-.08.58-.23.84-.41.75-.52 1.32-1.4 1.27-2.32-.14-2.56-3.88-2.16-4.67-.25ZM165.23 19.29c-.11.39-.14.84.05 1.2.11.21.29.37.48.51.73.53 1.71.7 2.55.4.84-.3 1.52-1.09 1.62-1.99.41-3.42-4.01-2.62-4.72-.12h.02Z" stroke="#000" stroke-width="1.5" stroke-linecap="round" stroke-linejoin="round"></path></svg>
