<svg width="250" height="250" fill="none" xmlns="http://www.w3.org/2000/svg"><g clip-path="url(#a)" stroke="#000" stroke-width="1.5" stroke-linecap="round" stroke-linejoin="round"><path d="M109.66 249.25c20.26 0 62.07-7.38 72.17-26.89 10.1-19.51-13.59-28.22-13.59-28.22l-49.09 12.89-9.49 42.22Z" fill="#000"></path><path d="M209.88 155.99c-5.24-34.86-42.33-32.05-51.2-24.21l-50.7 45.98 46.7 31.01c18.83-3.66 60.25-19.16 55.2-52.78Zm-23.69 25.61c-10.45 9.06-24.56 9.38-29.87 2.25l-11.41-12.75 12.68-10.92c.22-4.36 15.54-17.07 28.6-11.67 11.75 4.86 10.45 24.04 0 33.1v-.01Z" fill="#fff"></path><path d="M176.32 196.29c-.06.03-.01.12.05.09 20.36-9.3 26.96-23.48 26.95-32.09-.02-21.03-21.6-20.21-32.01-15.57 4.65-1.72 9.93-2.27 14.88-.22 11.74 4.85 10.45 23.99.04 33.06l2.84 2.7c.69.66.7 1.75.03 2.43-1.91 1.91-6.15 5.74-12.77 9.6h-.01Z" fill="#000"></path><path d="m40.61 132.69-.91 75.27c0 17.65 24.62 36.46 53.65 40.41 29.03 3.95 57.37-5.57 59.92-24.85 2.5-18.89 5.41-86.54 5.41-86.65 0-9.71-6.29-24.34-34.91-28.4V98.16c0-4.35.12-5.21-8.89-5.23-20.67-.03-74.49 6.1-74.28 39.75l.01.01Z" fill="#00E013"></path><path d="M58.93 156.89s-.15-13.73.55-21.16c.7-7.43 4.64-28.33 47.61-28.33s51.59 18.11 51.59 29.48c0 21.38-31.87 29.51-54.88 29.51-20.03 0-63.19-7.36-63.19-33.7"></path><path d="M67.93 148.3c-5.24-3.28-2.98-28.71 41.44-28.71 44.42 0 50.51 27.35 39.39 35.04 0 0-10.48 8.07-29.11 10.55v-10.37c0-1.14-1.02-2.01-2.15-1.83-39.81 6.41-58.52-6.06-58.02-17.24"></path><path d="M67.93 148.3c-5.24-3.28-2.98-28.71 41.44-28.71 44.42 0 50.51 27.35 39.39 35.04 0 0-10.48 8.07-29.11 10.55v-10.37c0-1.14-1.02-2.01-2.15-1.83-24 3.86-40.33.87-49.41-4.57l-.16-.1v-.01Z" fill="#000"></path><path d="M101.43 82.41c-27.8-33.79 10.81-56.04 5.5-81.03-.11-.52.54-.86.9-.46 28.97 32.14-6.94 56.64-5.46 81.13.03.5-.61.75-.93.36h-.01Z" fill="#fff"></path><path d="M104.15 197.45c-6.23.06-7.51 4.79-7.83 7.93-.32 3.14.79 7.91 6.63 7.93 5.11 0 7.59-3.91 7.99-7.92.4-4.01-2.24-7.98-6.79-7.93v-.01Z"></path><path d="M39.76 197.22c1.98 31.17 55.05 48.86 90.62 37.29.79-.26 1.34-.95 1.46-1.77.71-5.01 2.77-11.7 10.21-14.27.83-.29 1.39-1.06 1.44-1.94l2.03-34.85c.05-.79-.68-1.4-1.45-1.23-7.69 1.65-12.38.06-13.52-4.2-.36-1.36-1.75-2.18-3.13-1.97-40.67 6.26-62.55-3.59-74.79-12.83"></path><path d="M40.23 160.52s4.89-2.47 10.62 0c8.63 3.72 19.24 20.26 17.88 36.93-2.8 34.43-29.03 18.17-28.97-.23l.47-36.7Z" fill="#fff"></path><path d="M52.96 180.67c.41 1.3 5.32-2.31 3.42-4.81-1.55-2.03-5.04-4.9-6.01-5.68a.65.65 0 0 1-.24-.5v-2.12c0-.67-.41-1.27-1.05-1.54-.4-.16-.87-.35-1.36-.52-1.11-.39-2.28.38-2.32 1.52l-.02.66a.66.66 0 0 1-.62.63c-1 .08-3.05.37-4.64 1.41l-.14 7.82c0 5.84 11.68 12.78 7.7 15.99-2.13 1.72-5.63-3.14-7.81-5.83l-.08 5.93c1.74 3.41 4.5 4.23 4.68 6.09.1 1.13.27 1.95.41 2.75.16.93 1.09 2.42 2.29 2.84 1.91.68 1.95-.61 1.99-1.76.12-3.33 4.36-1.97 5.84-6.81 2.65-8.67-12.16-16.25-8.55-19.84 1.1-1.09 4.05-.34 6.51 3.77Z" fill="#00E013"></path></g><defs><clipPath id="a"><path fill="#fff" d="M0 0h250v250H0z"></path></clipPath></defs></svg>
