<svg width="250" height="250" fill="none" xmlns="http://www.w3.org/2000/svg"><path d="M160.66 227.289c-1.83-.82-3.29-2.13-4.38-3.93.12.21-.09-1.88-.44-4.88l-10.14 5.181v.819c4.22 3.23 6.84 5.37 9.77 6.46 6.89 2.55 12.07-.54 5.19-3.64v-.01ZM73.45 191.53 45 205.16c-11.24 5.69-9.64 15.57-2.14 20.18l36.64 21.42-6.05-55.24v.01Z" fill="#000" stroke="#000" stroke-width="1.5" stroke-linecap="round" stroke-linejoin="round"></path><path d="M212.59 89.67c.7 2.01.6 9.85.18 15.09-1.07 13.45-3.9 52.35-5.23 78.09-.7 8.3-1.9 9.74-6.7 12.15l-31.58 17.07-15.17 6.62C134.2 230 116.2 239.15 99.44 246.91c-12.83 5.3-26.19 2-26.19-14.12l.36-74.77c.34-7.98-.36-21.65 2.34-25.71l136.63-42.65.01.01Z" fill="#00E013" stroke="#000" stroke-width="1.5" stroke-linecap="round" stroke-linejoin="round"></path><path d="M199.93 83.09c13.3-2.4 20.46 13.32.24 20.969l-14.93 5.66c-24.81 10.01-57.72 23.55-84.39 34.23-21.22 9.25-36.86-10.62-15.12-19.93l11.87-4.57 102.33-36.36Z" fill="#00E013" stroke="#000" stroke-width="1.5" stroke-linecap="round" stroke-linejoin="round"></path><path d="m159.83 15.79-19.38-2.17-29.28 15.05-5.73 76.08 7.96 3.54 1.05 2.36c4.6 4.33 14.64 8.66 19.85 8.66 2.94.3 5.24-.83.84-2.86l-11.03-5.69 29.26-11.59 10.14 3.43 3.1-3.54 2.4-60.97-9.17-22.31-.01.01Z" fill="#000" stroke="#000" stroke-width="1.5" stroke-linecap="round" stroke-linejoin="round"></path><path d="M123.36 94.47c1.77-1.55 3.96-2.63 6.29-3.16-.12-.19-.25-.38-.38-.58L116.84 71.3c-.13-.18-.27-.36-.4-.54l-.91 22.67 3.99 6.61a13.55 13.55 0 0 1 3.83-5.58l.01.01Z" fill="#fff" stroke="#000" stroke-width="1.5" stroke-linecap="round" stroke-linejoin="round"></path><path d="M145.47 101.73c-9.28.45-11.37-3.62-15.82-10.42-2.33.52-4.52 1.61-6.29 3.16a13.71 13.71 0 0 0-3.83 5.58l9.78 16.19c.94 1.58 1.84 2.21 3.17 1.87l1.62-.71c1.12-.54 1.33-1.63.83-2.89l-1.73-4.16c5 1.94 10.13.36 13.65-2.06 3.8-3.17 2.32-6.8-1.39-6.58l.01.02Z" fill="#fff" stroke="#000" stroke-width="1.5" stroke-linecap="round" stroke-linejoin="round"></path><path d="M173.27 19.24C168.04 5.27 154.29-.43 141.58.95c-15.34 1.67-42.46 14.52-42.46 50.24 0 22.33-1.21 57.46-1.52 74.82 0 7.65 11.35 5.95 15.1 2.67 1.73-1.3 3.69-4.09 3.69-8.32l.88-66.37c.45-5.86 2.57-19.06 11.62-26.53 14.95-12.35 30.95-6.66 33.94 5.58l10.45-13.79-.01-.01Z" fill="#fff" stroke="#000" stroke-width="1.5" stroke-linecap="round" stroke-linejoin="round"></path><path d="m162.7 100.6-.77-62.47c0-16.05 6.88-26.01 17.95-24.33 11.07 1.68 20.29 13.22 20.29 33.54v64.05c0 1.75-1.13 2.84-3.26 2.06l-32.53-10.44c-1.12-.27-1.57-1.08-1.68-2.42v.01Z" fill="#fff" stroke="#000" stroke-width="1.5" stroke-linecap="round" stroke-linejoin="round"></path><path d="M193.433 75.12c1.285-.617 1.798-2.218 1.146-3.578-.652-1.36-2.222-1.962-3.507-1.346-1.285.617-1.798 2.218-1.146 3.578.652 1.36 2.222 1.962 3.507 1.346ZM159.18 196.69l6.02-2.77c.29-.17.39-.45.29-.83-2.57-9.02-6.46-25.62-9.03-34.64 3.44-4.26 4.42-8.93 3.44-13.58-.41-1.92-1.5-3.98-2.73-5.5s-2.98-2.66-4.91-2.93c-2.06-.29-4.16.42-5.93 1.53-3.66 2.28-6.17 6.33-6.6 10.64-.43 4.31 1.69 9.38 5.01 12.48l-7.35 45.03c-.14 1.11.69 1.46 1.69.93l8.59-4.12 11.51-6.23v-.01Z" fill="#000" stroke="#000" stroke-width="1.5" stroke-linecap="round" stroke-linejoin="round"></path><path d="M172.4 218.13c-4.61-10.51-19.05-29.91-30.04-42.47l-2.42 14.84c4.37 5.61 8.56 12.61 10.52 16.33 5.99 11.36 4.2 15.56 2.21 18.12-1.77 2.27-.91 5.37 2.07 5.01 5.03-.67 10.7-4.84 10.7-11.77l2.34 3.53c.43.56 1 .61 1.69.26l2.06-.98c1.27-.68 1.22-2.05.88-2.87h-.01Z" fill="#fff" stroke="#000" stroke-width="1.5" stroke-linecap="round" stroke-linejoin="round"></path><path d="M151.42 207.96c.4-2.34 1.68-4.51 3.53-5.97 1.85-1.47 4.3-2.26 6.74-1.63" stroke="#000" stroke-width="1.5" stroke-linecap="round" stroke-linejoin="round"></path><path d="M88.27 123.38c3.46 2.54 7.57 5.39 10.77 7.38-.91-1.61-1.55-3.73-1.72-5.57-.17-1.84-.07-3.7.03-5.55l-9.08 3.73v.01Z" fill="#000"></path></svg>
