<svg width="250" height="250" fill="none" xmlns="http://www.w3.org/2000/svg"><g clip-path="url(#a)"><path d="m63.32 137.37 62.53-63.45-59.86-72.8c-3.99 0-6.75 2.71-10.08 6.61-7.09 8.28-13.2 16.67-19.69 24.92-5.56 7.06-6.31 8.81-6.7 20.28-.51 14.82 1.41 88.41 1.91 107.97.03 1.62.28 2.56.99 3.07l.59-.51c4.56-4.28 19.72-16.44 30.32-26.08l-.01-.01Z" fill="#fff" stroke="#000" stroke-width="1.5" stroke-linecap="round" stroke-linejoin="round"></path><path d="m173.4 131.73-47.54-57.81-62.53 63.45c-10.59 9.64-25.75 21.8-30.32 26.08l-.59.51c.54.39 1.36.53 2.55.52 29.28-.08 93.5.19 110.99.05 3.95-.03 7.01.04 10.13-4.18 5.48-7.39 8.48-10.87 15.75-21.99 1.27-1.95 1.71-4.32 1.56-6.64v.01Z" fill="#000" stroke="#000" stroke-width="1.5" stroke-linecap="round" stroke-linejoin="round"></path><path d="M67.56 1.12c-7.54-.49-8.44 5.51-8.44 14.22.31 10.24.19 39.06.78 64.2.56 23.78 1.83 43.89 2.38 54.81.18 2.42 1.05 4.03 4 4.01 16.53-.07 41.64-1.73 61.07-1.91 19.43-.18 40.43-.37 40.43-.37 3.68.2 5.99-1.15 5.87-5.4-.39-13.88-3-80.25-3.29-102.21-.07-5.15-.83-14.69-.74-19.22-.01-6.78-2.84-8.52-10.61-8.26-24.85.26-64.76-.8-91.44.11l-.01.02Z" fill="#fff" stroke="#000" stroke-width="1.5" stroke-linecap="round" stroke-linejoin="round"></path><path d="M138.37 104.41c-15.32 22.46-47.04 17.66-54.25-6.84-6.29-22.26 6.42-42.03 29.04-43.88" fill="#fff"></path><path d="M138.37 104.41c-15.32 22.46-47.04 17.66-54.25-6.84-6.29-22.26 6.42-42.03 29.04-43.88M87.22 45.12c8.64-8.85 17.29-17.7 25.93-26.55M93.95 50.46c4.64-4.25 8.97-8.84 12.95-13.72M147.55 123.63c4.21-4.11 8.41-8.23 12.62-12.34" stroke="#000" stroke-width="1.5" stroke-linecap="round" stroke-linejoin="round"></path><path d="M164.79 125.23c.06-12.89.19-30.12-.41-43-.78-16.58-2.16-33.27-2.94-49.86-.09-2.36-2.02-4.53-4.43-4.43-19.78-.61-58.9 1.65-85.35.66-2.85 0-3.45 1.92-3.45 3.61-.52 11.75-.47 23.52.14 35.26 1.04 19.88 1.94 38.63 2.42 58.54-.15 3.81 1.79 5.81 4.28 5.13 17.91-.77 62.62-2.22 86.58-3.08 3.07-.08 3.28-.13 3.16-2.81v-.02Z" stroke="#000" stroke-width="1.5" stroke-linecap="round" stroke-linejoin="round"></path><path d="M125.97 136.48c6.73-6.55 13.46-13.11 20.19-19.66" stroke="#000" stroke-width="1.5" stroke-linecap="round" stroke-linejoin="round"></path><path d="M138.37 104.41c-12.26 14.44-42.7 13.05-47.97-10.34-1.67-7.43-1.32-18.05 3.55-25.99 14.07-22.96 41.42-15.51 48.13-6.06 8.69 12.23 8.13 30.04-3.71 42.38v.01Z" fill="#00E013" stroke="#000" stroke-width="1.5" stroke-linecap="round" stroke-linejoin="round"></path><path d="M126.99 71.75c-1.58-3.73-5.47-5.63-9.25-5.06-3.78.57-6.96 4.47-6.14 8.22.63 2.93 3.23 5.47 5.84 6.92 2.61 1.45 5.15 2.6 7.09 4.88 2.38 2.79 3.22 6.61 1.43 9.82-1.79 3.21-5.77 5.03-9.33 4.18-3.55-.85-6.08-3.86-5.97-7.53M119.58 61.65l-.07 4.62M119.41 106.09c-.1-1.8-.05-3.06-.15-4.86M84.18 97.85l5.88-3.5M82.53 82.51l7.94-5.72" stroke="#000" stroke-width="1.5" stroke-linecap="round" stroke-linejoin="round"></path><path d="m88.71 107.15 5.06-3.32c13.5 14.64 30.08 11.34 42.13 3.81-11.76 13.56-32.78 15.55-47.19-.49Z" fill="#000"></path><path d="M84.18 229.34c-20.84.79-37.53 2.43-45.7 4.5-14.85 3.78-6.74 11.9 7.71 13.6 24.23 2.85 66.68 2.11 87.13-.66 20.8-2.74 24.37-15.2-49.14-17.44Z" fill="#000" stroke="#000" stroke-width="1.5" stroke-linecap="round" stroke-linejoin="round"></path><path d="M180.54 72.73c-.23-4.11-.81-9.8-.29-13.69.41-3.12 1.53-6.15 4.65-10.27 5.03-6.65 11.04-13.44 16.04-18.81 1-1.08 2.52-2.01 3.98-2.16l4.38 21.31-28.76 23.62Z" fill="#fff" stroke="#000" stroke-width="1.5" stroke-linecap="round" stroke-linejoin="round"></path><path d="M220.56 40.05c.03-2.92-.04-7.19-.45-10.13-.16-1.15-1.27-2.41-2.67-2.59-3.57-.47-9.98-.04-13.03.41-1.17.18-2.27 1.43-2.36 2.89-.14 2.18-.07 8.95.32 11.48.29 1.89 1.51 2.32 2.87 2.58 2.82.35 6.44.23 11.17-.17 1.79-.07 4.12-2.01 4.15-4.47Z" fill="#fff" stroke="#000" stroke-width="1.5" stroke-linecap="round" stroke-linejoin="round"></path><path d="M203.56 44.11c-6.96 7.26-17.05 21.21-22.86 28.07-.37.44-.06 1.04.53 1.04 2.52 0 9.95-.89 9.95-.89M204.6 60.99l11.91-11.49c1.15-1.11 4.06-3.53 4.05-9.45M141.71 164.56c-.29 2.6-.34 5.23-.08 7.82.45 4.36 4.52 5.43 7.87 1.19.98-1.18 1.77-2.91 1.9-5.5.06-1.27-.02-2.72-.18-4.02" stroke="#000" stroke-width="1.5" stroke-linecap="round" stroke-linejoin="round"></path><path d="M144.49 193.03c-1.54-3.65-1.97-8.24-1.49-14.41.18-2.36.9-4.23 3.16-4.93 2.68-.54 3.71 1.59 4.44 4.61.61 2.75.87 3.95.97 6.77.02 6-5.12 12.17-7.08 7.96Z" stroke="#000" stroke-width="1.5" stroke-linecap="round" stroke-linejoin="round"></path><path d="M144.59 195.52c-.36 3.24-.4 6.15.62 9.24 1.29 3.73 5.65 3.19 6.63.28 1.71-3.95.82-9.29-.85-13.17-2.59-5.04-5.52-1.75-6.4 3.64v.01Z" stroke="#000" stroke-width="1.5" stroke-linecap="round" stroke-linejoin="round"></path><path d="M155.08 220.42c1.38-2.73-.35-9.9-1.75-12.2-5.54-9.16-8.16-1.32-7.23 6.39 0 0 .35 4.57 2.14 6.37 2.13 2.14 5.84 1.43 6.83-.55l.01-.01Z" stroke="#000" stroke-width="1.5" stroke-linecap="round" stroke-linejoin="round"></path><path d="M150.75 220.75c-1.77 3.33-1.46 9.31 0 13.22.81 3.28 5.19 2.99 6.25 0 1.63-3.63 1.09-8.74-.78-12.23-1.84-3.48-4.27-3.4-5.47-1v.01Z" stroke="#000" stroke-width="1.5" stroke-linecap="round" stroke-linejoin="round"></path><path d="M166.33 242.42c.1-1.88-.81-3.69-2.02-5.13-1.53-1.83-3.71-3.29-6.1-3.34-2.39-.05-4.88 1.66-5.13 4.03-.13 1.2.31 2.41.98 3.41.67 1 1.58 1.83 2.49 2.62.91.79 1.85 1.57 2.93 2.09 2.94 1.42 6.66-.19 6.85-3.68Z" stroke="#000" stroke-width="1.5" stroke-linecap="round" stroke-linejoin="round"></path><path d="M165.89 235.03c-1.69.37-3.33 1.42-3.95 3.04-.65 1.69-.03 3.71 1.26 4.98 1.3 1.26 3.16 1.82 4.97 1.81 1.74-.01 3.51-.54 4.81-1.71 1.3-1.17 2.03-3.01 1.63-4.71-.82-3.57-5.83-4.04-8.72-3.4v-.01Z" stroke="#000" stroke-width="1.5" stroke-linecap="round" stroke-linejoin="round"></path><path d="M174.71 239.29c3.92.68 7.21-2.47 8.79-6.02 2.48-5.6 1.01-11.52-4.94-8.34-3.54 1.9-11.49 12.34-3.85 14.36Z" stroke="#000" stroke-width="1.5" stroke-linecap="round" stroke-linejoin="round"></path><path d="M180.04 228.02c-3.5-1.39 0-11.54 5.91-14.08 10.8-3.44.3 16.61-5.91 14.08Z" stroke="#000" stroke-width="1.5" stroke-linecap="round" stroke-linejoin="round"></path><path d="M187.51 212.57c.64-3.49 2.15-7.86 4.57-9.71 2.97-2.27 5.28-1.86 5.65 1.8.41 4.01-1.64 8.52-4.39 11.11-2.94 2.78-6.44 1.35-5.83-3.21v.01Z" stroke="#000" stroke-width="1.5" stroke-linecap="round" stroke-linejoin="round"></path><path d="M201.174 197.253c1.26-4.131.529-8.014-1.631-8.673-2.161-.659-4.934 2.156-6.194 6.287-1.259 4.131-.529 8.014 1.631 8.673 2.161.659 4.934-2.156 6.194-6.287Z" stroke="#000" stroke-width="1.5" stroke-linecap="round" stroke-linejoin="round"></path><path d="M196.21 182.1c-1.34 17.18 9.35 4.59 7.82-2.74-1.05-5.04-7.21-4.68-7.82 2.74Z" stroke="#000" stroke-width="1.5" stroke-linecap="round" stroke-linejoin="round"></path><path d="M197.5 171.37c-.88 2.05-.23 5.25 1.68 6.51 2.67 1.75 5.64-3.19 4.24-7.84" stroke="#000" stroke-width="1.5" stroke-linecap="round" stroke-linejoin="round"></path><path d="M219.692 43.917c-.6 1.825-1.746 3.567-3.521 5.206l-.161.148v.017l-10.838 10.456a3.628 3.628 0 0 0-.691-1.911c-.611-.827-1.553-1.344-2.614-1.615-2.084-.532-4.787-.163-7.013.88l-1.699.145 10.399-13.035c1.217.906 2.821 1.192 5.496 1.192h.016l.017-.001 7.37-.49-.001-.001a5.948 5.948 0 0 0 3.24-.99ZM190.698 71.837l-9.149.354 5.165-7.114 4.743-5.737-.759 12.497Z" fill="#000" stroke="#000"></path><path d="M209.3 163.63c-1.51-33.36-4.69-72.77-4.69-102.65.31-7.31-12.86-5.99-12.84 1.72-.99 21.88.25 33.88.68 55.78.43 22.07 0 39.09.15 48.3" fill="#fff"></path><path d="M209.3 163.63c-1.51-33.36-4.69-72.77-4.69-102.65.31-7.31-12.86-5.99-12.84 1.72-.99 21.88.25 33.88.68 55.78.43 22.07 0 39.09.15 48.3" stroke="#000" stroke-width="1.5" stroke-linecap="round" stroke-linejoin="round"></path><path d="M204.22 159.89c4.83-.41 7.47 5.51 2.13 8.64-1.55.91-3.18 1.27-4.89 1.81-7.34 2.29-10.53-2.55-8.03-4.96 2.14-2.06 7.84-5.24 10.79-5.49Z" fill="#000" stroke="#000" stroke-width="1.5" stroke-linecap="round" stroke-linejoin="round"></path></g><defs><clipPath id="a"><path fill="#fff" d="M0 0h250v250H0z"></path></clipPath></defs></svg>
