<svg width="250" height="250" fill="none" xmlns="http://www.w3.org/2000/svg"><g clip-path="url(#a)"><path d="M138.71 193.77c-19.17-6.29-91.35-36.84-94.35-38.04-3-1.2-6.89-2.4 0-8.69 6.89-6.29 32.95-34.46 35.94-37.15 3-2.69 3.95-4.98 9.31-3.08 5.36 1.9 68.44 26.16 68.44 26.16l-19.35 60.8h.01Z" fill="#000" stroke="#000" stroke-width="1.5" stroke-linecap="round" stroke-linejoin="round"></path><path d="m130.24 184.78 1.59-126.39c0-9.28 1.5-13.48 6.89-17.97l35.64-35.65c3.89-3.89 5.47-5.56 13.26-2.27 7.79 3.29 6.21 5.26 6.51 8.26l1.8 127.59c0 11.68-2.7 11.38-4.79 14.08L154 191.37c-6.29 6.59-7.19 5.09-15.28 2.4l-8.48-3.03v-5.95" fill="#fff"></path><path d="m130.24 184.78 1.59-126.39c0-9.28 1.5-13.48 6.89-17.97l35.64-35.65c3.89-3.89 5.47-5.56 13.26-2.27 7.79 3.29 6.21 5.26 6.51 8.26l1.8 127.59c0 11.68-2.7 11.38-4.79 14.08L154 191.37c-6.29 6.59-7.19 5.09-15.28 2.4l-8.48-3.03v-5.95" stroke="#000" stroke-width="1.5" stroke-linecap="round" stroke-linejoin="round"></path><path d="M183.94 12.26c-6.29 6.59-33.25 35.34-35.04 37.44-1.8 2.1-3 2.7-3.29 12.28v127.89c-.19 4.54 2.05 6.11 4.02 5.32 1.21-.72 2.57-1.94 4.37-3.83l37.14-38.94c2.1-2.7 4.79-2.4 4.79-14.08l-1.8-127.59c-.14-3.09-3.89-5.09-10.18 1.5l-.01.01Z" fill="#fff" stroke="#000" stroke-width="1.5" stroke-linecap="round" stroke-linejoin="round"></path><path d="M145.54 67.37s48.8-48.52 48.79-48.82c11.63 5.99 20.61 21.57 23.46 27.11 2.85 5.54 2.4 7.34 1.35 8.54l-48.68 48.19c-.25.24-.61.31-.93.18l-23.98-9.96V67.37h-.01Z" fill="#fff" stroke="#000" stroke-width="1.5" stroke-linecap="round" stroke-linejoin="round"></path><path d="M145.54 67.37c8.3 1.42 23.51 18.21 25.04 34.1.12 1.19-1.07 2.08-2.18 1.64l-22.87-9.22V67.38l.01-.01Z" fill="#00E013" stroke="#000" stroke-width="1.5" stroke-linecap="round" stroke-linejoin="round"></path><path d="M179.04 93.92c0 8.7-.11 21.08 0 25.47.11 4.39.29 20.17 0 24.76s.16 20.63.16 20.63" stroke="#000" stroke-width="1.5" stroke-linecap="round" stroke-linejoin="round"></path><path d="M135.47 102.93c-.04.56.05 1.15.38 1.64.35.53 1.03.89 1.74.92.71.03 1.45-.24 1.87-.73.54-.61.57-1.42.57-2.18.02-2.47.04-4.94.07-7.41 0-.98 0-2.59-1.97-2.59-3.39 0-2.19 3.24-2.67 10.35h.01ZM135.47 82.73c.02.56.05 1.15.38 1.64.35.53 1.03.89 1.74.92.71.03 1.45-.24 1.87-.73.54-.61.57-1.42.57-2.18.02-2.47.04-4.94.07-7.41 0-.98 0-2.59-1.97-2.59-3.28 0-2.92 4.04-2.67 10.35h.01ZM135.47 121.7c.02.56.05 1.15.38 1.64.35.53 1.03.89 1.74.92.71.03 1.45-.24 1.87-.73.54-.61.57-1.42.57-2.18.02-2.47.43-4.94.45-7.41 0-.98-.39-2.59-2.36-2.59-3.28 0-2.92 4.04-2.67 10.35h.02Z" fill="#fff" stroke="#000" stroke-width="1.5" stroke-linecap="round" stroke-linejoin="round"></path><path d="M184.16 99.66c-.72.46-1.32 1.22-1.41 2.12-.09.9.4 1.94 1.66 2.03.67.05 1.5-.25 1.91.33.13.18.17.41.2.63.17 1.16.13 2.34.08 3.51l-.15 3.88c-.03.91-.07 1.83-.34 2.7-.29.96-1.24 1.8-1.59 2.74-.35.94-.48 2.09.08 2.9.44.65 1.22.94 1.95.91.73-.03 1.44-.33 2.11-.68.75-.4 1.5-.9 1.93-1.68.42-.77.47-1.7.51-2.59.21-4.91.27-9.82.2-14.73 0-.64-.03-1.3-.29-1.87-.37-.8-1.19-1.26-2.01-1.39-1.51-.24-3.54.37-4.84 1.21v-.02ZM167.11 112.62c-.72.46-1.32 1.22-1.41 2.12-.09.9.4 1.94 1.66 2.03.67.05 1.5-.25 1.91.33.13.18.17.41.2.63.17 1.16.13 2.34.08 3.51-.05 1.29.21 2.32.16 3.62-.03.91 0 2.09-.27 2.96-.29.96-1.42 1.91-1.97 2.74-1.28 1.94-.16 4.2 2.03 4.2.74 0 1.44-.33 2.11-.68.75-.4 1.5-.9 1.93-1.68.42-.77.47-1.7.51-2.59.21-4.91.27-10.21.2-15.12 0-.64-.03-1.3-.29-1.87-.37-.8-1.19-1.26-2.01-1.39-1.51-.24-3.54.37-4.84 1.21v-.02Z" fill="#00E013" stroke="#000" stroke-width="1.5" stroke-linecap="round" stroke-linejoin="round"></path><path d="M55.58 196.38 30.06 220.9l64.69 28.35 7.19-42.53-46.36-10.34Z" fill="#000" stroke="#000" stroke-width="1.5" stroke-linecap="round" stroke-linejoin="round"></path><path d="m89.79 155.89-31.78 31.06 36.74 62.3 34.98-35.76c.56-.58.66-1.47.24-2.15l-33.98-54.7c-1.35-2.17-4.37-2.54-6.2-.75Z" fill="#fff" stroke="#000" stroke-width="1.5" stroke-linecap="round" stroke-linejoin="round"></path><path d="m58.01 186.95-10.43 40.36c-.1.38.37.64.64.36l21.06-21.6-11.27-19.12ZM99.12 213.66c-2.23.82-4.87.97-7.29.9-.39-.01-.7.29-.72.68-.05 1.44-.15 3.33-.2 4.32-.02.39.27.71.65.74 1.8.14 6.78.3 10.49-1.52.47-.23 1.08-.09 1.38.34l1.59 2.32c.24.4.79.47 1.13.16l2.36-1.9c.26-.24.32-.64.13-.94l-1.19-1.94c-.4-.66-.37-1.49.08-2.11 2.67-3.67 3.33-7.64 2.48-10.73-2.05-7.45-10.77-6.91-14.54-6.67-3.77.24-9.04 1.44-10.79-1.36-.43-.69-.62-1.52-.61-2.34 0-.96.27-1.87.72-2.69 1.39-2.21 5.31-4.55 10.22-3.96.52.06.96-.44.99-.96l.13-2.88c.03-.55-.39-.99-.94-1.05-3.04-.34-4.79-.21-7.74.83-.38.14-.81.03-1.02-.32l-1.14-1.85a.922.922 0 0 0-1.39-.22l-2.17 1.65c-.35.3-.43.8-.19 1.2l1.13 1.84c.19.31.15.72-.1.99-2.27 2.35-3.69 5.55-3.56 8.81.04.95.21 1.9.58 2.78.89 2.12 2.9 3.63 5.08 4.35 5.42 1.79 10.75-.57 15.38.18 4.63.75 6.14 4.72 4.28 7.93-1.31 1.85-3.02 2.75-5.22 3.44l.01-.02Z" fill="#00E013" stroke="#000" stroke-width="1.5" stroke-linecap="round" stroke-linejoin="round"></path></g><defs><clipPath id="a"><path fill="#fff" d="M0 0h250v250H0z"></path></clipPath></defs></svg>
