<svg width="24" height="24" fill="none" xmlns="http://www.w3.org/2000/svg"><path d="m12.716 3.514.267.017c1.328.109 2.483.49 3.331 1.237.933.82 1.365 1.966 1.365 3.282 0 1.592-.759 2.802-1.923 3.585.342.178.65.383.924.611 1.162.972 1.57 2.264 1.57 3.457 0 1.429-.528 2.672-1.563 3.541-1.006.846-2.39 1.25-3.971 1.255V23h-2v-2.5H6.25v-17h1c.904 0 1.807.003 2.709.006h.757V1h2v2.514ZM8.25 18.5h4.435c1.277 0 2.165-.325 2.716-.787.53-.445.849-1.1.849-2.01 0-.73-.236-1.406-.854-1.923-.643-.538-1.836-1.015-3.978-1.015H8.25V18.5Zm0-7.735h3.168l.486-.013c1.11-.06 2.038-.325 2.686-.741.696-.448 1.089-1.075 1.089-1.961 0-.859-.266-1.411-.686-1.78-.446-.393-1.198-.694-2.374-.76-.89 0-1.779-.001-2.666-.004L8.25 5.502v5.263Z" fill="#000"></path></svg>
