<svg width="24" height="24" fill="none" xmlns="http://www.w3.org/2000/svg"><path d="M12 1c2.381 0 4.668.93 6.357 2.59A8.794 8.794 0 0 1 21 9.862l-.007.323c-.133 3.332-2.292 6.358-4.262 8.471a29.297 29.297 0 0 1-4.06 3.594c-.03.023-.056.04-.073.052l-.02.014-.007.004-.002.002L12 21.5l.568.823a1 1 0 0 1-1.136 0h-.001l-.002-.003c-.002 0-.004-.002-.006-.004l-.02-.014-.075-.052a26.674 26.674 0 0 1-1.21-.935 29.31 29.31 0 0 1-2.85-2.659c-1.97-2.113-4.128-5.138-4.261-8.47L3 9.861c0-2.356.953-4.612 2.643-6.272A9.071 9.071 0 0 1 12 1Zm0 2a7.072 7.072 0 0 0-4.956 2.016A6.795 6.795 0 0 0 5 9.862l.005.25c.105 2.572 1.822 5.137 3.726 7.18A27.35 27.35 0 0 0 12 20.255a27.354 27.354 0 0 0 3.269-2.963c1.966-2.11 3.73-4.774 3.731-7.43l-.009-.34a6.8 6.8 0 0 0-2.035-4.506A7.072 7.072 0 0 0 12 3Zm0 4.5a2 2 0 1 1 0 4 2 2 0 0 1 0-4Z" fill="#000"></path></svg>
