<svg width="24" height="24" fill="none" xmlns="http://www.w3.org/2000/svg"><path d="M11.102 12.005A1 1 0 0 1 12 13v7a1 1 0 0 1-1 1H4a1 1 0 0 1-1-1v-7l.005-.099A1 1 0 0 1 4 12h7l.102.005ZM21 20a1 1 0 0 1-1 1h-5v-2h4v-4h2v5ZM5 19h5v-5H5v5Zm10.5-7a1.5 1.5 0 1 1 0 3 1.5 1.5 0 0 1 0-3Zm-5-5a1.5 1.5 0 1 1 0 3 1.5 1.5 0 0 1 0-3Zm9.602-3.995A1 1 0 0 1 21 4v5l-.005.103a1 1 0 0 1-.893.892L20 10h-5a1 1 0 0 1-1-1V4l.005-.099A1 1 0 0 1 15 3h5l.102.005ZM9 5H5v4H3V4l.005-.103A1 1 0 0 1 4 3h5v2Zm7 3h3V5h-3v3Z" fill="#000"></path></svg>
